# xmcd
#
# Track frame offsets:
#	150
#	8336
#	27272
#	46439
#	63763
#	80879
#	96724
#	113873
#	124635
#	141059
#	158970
#	176104
#	191251
#	213829
#	221670
#	234025
#	248747
#	270285
#	287280
#	305728
#	326429
#	341098
#
# Disc length: 4779 seconds
#
# Revision: 1
# Processed by: cddbd v1.5.2PL0 Copyright (c) Steve Scherf et al.
# Submitted via: EasyCDDAExtractor 10.0.2.1
#
DISCID=3012a916
DTITLE=Christina Aguilera - Back to Basics
DYEAR=2006
DGENRE=Pop
TTITLE0=Intro (Back to Basics)
TTITLE1=Makes Me Wanna Pray
TTITLE2=Back In The Day
TTITLE3=Ain't No Other Man
TTITLE4=Understand
TTITLE5=Slow Down Baby
TTITLE6=Oh Mother
TTITLE7=F.U.S.S. (Interlude)
TTITLE8=On Our Way
TTITLE9=Without You
TTITLE10=Still Dirrty
TTITLE11=Here To Stay
TTITLE12=Thank You (Dedication To Fans)
TTITLE13=Enter The Circus
TTITLE14=Welcome
TTITLE15=Candyman
TTITLE16=Nasty Naughty Boy
TTITLE17=I Got Trouble
TTITLE18=Hurt
TTITLE19=Mercy On Me
TTITLE20=Save Me From Myself
TTITLE21=The Right Man
EXTD=
EXTT0=
EXTT1=
EXTT2=
EXTT3=
EXTT4=
EXTT5=
EXTT6=
EXTT7=
EXTT8=
EXTT9=
EXTT10=
EXTT11=
EXTT12=
EXTT13=
EXTT14=
EXTT15=
EXTT16=
EXTT17=
EXTT18=
EXTT19=
EXTT20=
EXTT21=
PLAYORDER=
